<svg width="32" height="32" viewBox="0 0 32 32" fill="none" xmlns="http://www.w3.org/2000/svg">
<path d="M17.0003 6.33337L24.3337 13.6667M17.0003 6.33337V11C17.0003 12.4728 18.1942 13.6667 19.667 13.6667H24.3337M17.0003 6.33337H13.667H10.3337C8.8609 6.33337 7.66699 7.52728 7.66699 9.00004V23C7.66699 24.4728 8.8609 25.6667 10.3337 25.6667H21.667C23.1398 25.6667 24.3337 24.4728 24.3337 23V13.6667" stroke="#005AEE" stroke-width="2" stroke-linecap="round" stroke-linejoin="round"/>
<path d="M7.66699 8.99992C7.66699 7.52716 8.8609 6.33325 10.3337 6.33325H13.667H17.0003V10.9999C17.0003 12.4727 18.1942 13.6666 19.667 13.6666H24.3337V22.9999C24.3337 24.4727 23.1398 25.6666 21.667 25.6666H10.3337C8.8609 25.6666 7.66699 24.4727 7.66699 22.9999V8.99992Z" fill="url(#paint0_linear)" stroke="#005AEE" stroke-width="2" stroke-linecap="round" stroke-linejoin="round"/>
<path d="M11.667 21H20.3337" stroke="#005AEE" stroke-width="2" stroke-linecap="round" stroke-linejoin="round"/>
<path d="M11.667 17H15.0003" stroke="#005AEE" stroke-width="2" stroke-linecap="round" stroke-linejoin="round"/>
<defs>
<linearGradient id="paint0_linear" x1="16.0003" y1="6.33325" x2="16.0003" y2="19.3141" gradientUnits="userSpaceOnUse">
<stop stop-color="#E6EFFE"/>
<stop offset="1" stop-color="#CCDEFC" stop-opacity="0"/>
</linearGradient>
</defs>
</svg>
