<?xml version="1.0" encoding="UTF-8"?>
<svg width="99px" height="29px" viewBox="0 0 99 29" version="1.1" xmlns="http://www.w3.org/2000/svg" xmlns:xlink="http://www.w3.org/1999/xlink">
    <!-- Generator: Sketch 63.1 (92452) - https://sketch.com -->
    <title>Amelia-Logo</title>
    <desc>Created with Sketch.</desc>
    <g id="Page-1" stroke="none" stroke-width="1" fill="none" fill-rule="evenodd">
        <g id="Amelia-Logo" fill="#808A9E" fill-rule="nonzero">
            <path d="M13,11.3202914 L13,2.11778499 C13,0.489925296 11.1231875,-0.527461673 9.62177996,0.286468177 L1.1261087,4.89208045 C0.429291817,5.26979904 0,5.96796007 0,6.72339726 L0,15.8822116 C0,17.5062191 1.86875066,18.5241129 3.37015822,17.7178875 L11.8659356,13.1560687 C12.5672077,12.7793638 13,12.0789725 13,11.3202914 Z" id="Path" opacity="0.9"></path>
            <path d="M15,2.117824 L15,11.3203078 C15,12.0789871 15.4327923,12.779478 16.1339584,13.1559792 L24.6298418,17.7178882 C26.1312493,18.5241116 28,17.5062203 28,15.8822168 L28,6.72342496 C28,5.96798962 27.5707082,5.26983031 26.8738913,4.89211264 L18.378114,0.286410304 C16.8767064,-0.527416173 15,0.489968297 15,2.117824 Z" id="Path"></path>
            <path d="M12.4127018,15.2904712 L4.1030298,20.0662447 C2.63584355,20.909406 2.63146015,23.0341933 4.09509793,23.883466 L12.40477,28.705023 C13.0825269,29.0983257 13.9174601,29.0983257 14.5951127,28.705023 L22.9048891,23.883466 C24.3685269,23.0341933 24.3641435,20.909406 22.8970616,20.0662447 L14.5872852,15.2904712 C13.9135985,14.9031763 13.0862841,14.9031763 12.4127018,15.2904712 Z" id="Path" opacity="0.7"></path>
            <path d="M86.0528634,8.92668879 C86.206559,8.95128856 86.372002,8.96964077 86.5482134,8.98174541 C86.7254038,8.99404529 86.8849731,9 87.0269212,9 C87.1561429,9 87.3069016,8.99404529 87.4772394,8.98174541 C87.648556,8.96964077 87.8051884,8.95128856 87.9461576,8.92668879 C87.9696525,8.77996876 87.9843368,8.62104647 87.9911894,8.44962905 C87.9970631,8.27840687 88,8.12563452 88,7.99092152 C88,7.85640375 87.9970631,7.70363139 87.9911894,7.53221398 C87.9843368,7.36089418 87.9696525,7.20821945 87.9461576,7.07340882 C87.8051884,7.0490043 87.6456192,7.03074971 87.4684288,7.01844982 C87.2922173,7.00634518 87.1385218,7 87.0083211,7 C86.8790994,7 86.7254038,7.00634518 86.5482134,7.01844982 C86.372002,7.03074971 86.206559,7.0490043 86.0528634,7.07340882 C86.0293686,7.20821945 86.0146843,7.36089418 86.0088106,7.53221398 C86.0029369,7.70363139 86,7.85640375 86,7.99092152 C86,8.12563452 86.0029369,8.27840687 86.0088106,8.44962905 C86.0146843,8.62104647 86.0293686,8.77996876 86.0528634,8.92668879 Z" id="Path"></path>
            <path d="M41.6982893,16.6559983 L43.9377916,9.08377785 L46.1990669,16.6559983 L41.6982893,16.6559983 Z M44.6158631,7.02060454 C44.4105754,7.00700764 44.2125454,7 44.0207361,7 C43.8009331,7 43.5883878,7.00700764 43.3831001,7.02060454 C43.1778123,7.03451522 42.9860031,7.05511976 42.8076724,7.08252275 L38,21.9173727 C38.150337,21.9448802 38.3182996,21.9654848 38.5028512,21.9792909 C38.6884396,21.9928878 38.8761016,22 39.0679108,22 C39.2462416,22 39.4245723,21.9928878 39.6018663,21.9792909 C39.780197,21.9654848 39.9585277,21.9448802 40.1368585,21.9173727 L41.1435977,18.4924171 L46.7537584,18.4924171 L47.7812338,21.9173727 C47.9450492,21.9448802 48.1202696,21.9654848 48.3048212,21.9792909 C48.4893727,21.9928878 48.6708139,22 48.8491446,22 C49.0409539,22 49.2400207,21.9928878 49.4453084,21.9792909 C49.6505962,21.9654848 49.8351477,21.9448802 50,21.9173727 L45.212027,7.08252275 C45.0202177,7.05511976 44.8221877,7.03451522 44.6158631,7.02060454 Z" id="Shape"></path>
            <path d="M63.3827109,11 C62.9714645,11 62.6021821,11.055516 62.2759127,11.1663331 C61.9496433,11.2774724 61.6590432,11.4229737 61.4041125,11.6029442 C61.1481326,11.7833442 60.9183802,11.9912338 60.712757,12.2268277 C60.5071339,12.4627437 60.3329836,12.6983375 60.1913554,12.933824 C59.9500629,12.3240075 59.5986152,11.8492762 59.1380613,11.5094154 C58.6764582,11.1699841 58.0207721,11 57.1699538,11 C56.7587075,11 56.3831305,11.055516 56.0421737,11.1663331 C55.7022661,11.2774724 55.4001259,11.4229737 55.1378514,11.6029442 C54.875577,11.7833442 54.6489719,11.9876902 54.456987,12.2165191 C54.317457,12.3836039 54.1947125,12.5565947 54.0887537,12.7349545 L54.0887537,11.1632191 L52,11.1632191 L52,11.2495534 L52,17.7825047 L52,21.9167797 C52.1552665,21.9443767 52.332564,21.9652086 52.5318926,21.9790607 C52.7301721,21.9928055 52.9074696,22 53.0637851,22 C53.2201007,22 53.3932018,21.9928055 53.5851867,21.9790607 C53.7761225,21.9652086 53.9502728,21.9443767 54.1065883,21.9167797 L54.1065883,16.4688058 C54.1065883,15.8589893 54.1737306,15.3217622 54.3080151,14.8572321 C54.4433487,14.3930241 54.6269408,14.0082781 54.8619387,13.7032087 C55.0958875,13.3984615 55.368653,13.16974 55.680235,13.0169369 C55.9928661,12.8646707 56.3264792,12.7882154 56.6810743,12.7882154 C57.3042384,12.7882154 57.7584977,13.0205879 58.0428032,13.4847958 C58.3260596,13.9494333 58.4676878,14.6461211 58.4676878,15.5746444 L58.4676878,21.9167797 C58.6240034,21.9443767 58.7971045,21.9652086 58.9890894,21.9790607 C59.1810743,21.9928055 59.3541754,22 59.510491,22 C59.6668065,22 59.8399077,21.9928055 60.0318926,21.9790607 C60.2228284,21.9652086 60.3969786,21.9443767 60.5532942,21.9167797 L60.5532942,15.8865862 C60.5532942,14.88848 60.776752,14.1330548 61.2226185,13.6199885 C61.6695342,13.1073517 62.2549308,12.8506038 62.9788082,12.8506038 C63.6596727,12.8506038 64.1485522,13.0897412 64.446496,13.5680161 C64.7444398,14.046291 64.8934117,14.7635959 64.8934117,15.720253 L64.8934117,21.9167797 C65.0497272,21.9443767 65.2228284,21.9652086 65.4148133,21.9790607 C65.6057491,21.9928055 65.7798993,22 65.9362149,22 C66.0914813,22 66.2687789,21.9928055 66.4681074,21.9790607 C66.6663869,21.9652086 66.8436844,21.9443767 67,21.9167797 L67,15.1170941 C67,13.7587247 66.7125472,12.733129 66.1376416,12.0396626 C65.5637851,11.3466258 64.6447755,11 63.3827109,11 Z" id="Path"></path>
            <path d="M71.0875607,15.4860526 C71.1790758,14.5847549 71.4383685,13.8815756 71.8654389,13.3761119 C72.2914925,12.871051 72.9056604,12.6181682 73.7059089,12.6181682 C74.1136595,12.6181682 74.4644673,12.6969927 74.7603661,12.8538364 C75.055248,13.0109822 75.2982714,13.2192682 75.4884194,13.4785939 C75.6785674,13.738121 75.8239747,14.0419427 75.9215908,14.3900593 C76.0202237,14.7383772 76.0700486,15.1039097 76.0700486,15.4860526 L71.0875607,15.4860526 Z M76.9170715,12.3827012 C76.5621964,11.952438 76.1219071,11.6144891 75.5972207,11.3686532 C75.0715173,11.1228173 74.4614168,11 73.7659022,11 C72.9514179,11 72.2457349,11.1468774 71.6488532,11.4404309 C71.0509547,11.7342863 70.5557564,12.1301204 70.1612247,12.6285372 C69.7677099,13.1271553 69.4748616,13.7141615 69.2847136,14.3900593 C69.0945656,15.0660578 69,15.7931965 69,16.571677 C69,17.3638485 69.0976161,18.091088 69.2948819,18.7532947 C69.4921478,19.4158033 69.8032991,19.9893198 70.2303694,20.4738441 C70.656423,20.9587711 71.1983957,21.3342699 71.8552706,21.6006425 C72.5111287,21.8668137 73.2991752,22 74.2183934,22 C74.8488306,22 75.423342,21.9519805 75.9419275,21.8565454 C76.4605129,21.760909 76.9363914,21.617857 77.3695628,21.4264835 C77.3563439,21.1396749 77.3166874,20.8496449 77.25161,20.5557894 C77.1855158,20.2623366 77.1001017,20.0130779 76.9953678,19.8082147 C76.1554627,20.149687 75.2687832,20.3202218 74.3363462,20.3202218 C73.2727375,20.3202218 72.4684216,20.0540506 71.9244153,19.5215068 C71.3793922,18.9887616 71.0936617,18.1489732 71.067224,17.0018395 L77.9410236,17.0018395 C77.9532256,16.8517407 77.9664445,16.6709375 77.9796633,16.4590273 C77.9928822,16.2474192 78,16.04618 78,15.8548065 C78,15.1582714 77.9074681,14.5130779 77.7244379,13.9189241 C77.5403909,13.3249716 77.2709298,12.8128638 76.9170715,12.3827012 Z" id="Shape"></path>
            <path d="M83.4575275,20.3355298 C83.3116279,20.3494404 83.1813953,20.3561343 83.0668299,20.3561343 C82.9013464,20.3561343 82.7456548,20.3390859 82.6007344,20.3046752 C82.4538556,20.270683 82.3265606,20.1952725 82.2188494,20.0787575 C82.1111383,19.9624516 82.0259486,19.7945822 81.9623011,19.5752536 C81.8986536,19.3563435 81.8673195,19.0549106 81.8673195,18.6711641 L81.8673195,7.08220897 C81.727295,7.05491057 81.5716034,7.03441063 81.4002448,7.02049995 C81.2288862,7.00700764 81.0731946,7 80.9331701,7 C80.7941248,7 80.6384333,7.00700764 80.4670747,7.02049995 C80.295716,7.03441063 80.1400245,7.05491057 80,7.08220897 L80,19.1232089 C80,19.6712687 80.0695226,20.1301119 80.2095471,20.4999477 C80.3495716,20.8697835 80.5395349,21.1645225 80.7813953,21.3835373 C81.0222766,21.6028658 81.3013464,21.7604853 81.6195838,21.856082 C81.9368421,21.9517833 82.2795594,22 82.6477356,22 C82.8631579,22 83.098164,21.98975 83.352754,21.9691455 C83.6063647,21.9485409 83.8227662,21.9039849 84,21.8355821 C84,21.2740299 83.9432069,20.7535823 83.8286414,20.2739253 C83.7268054,20.3015375 83.6034272,20.322142 83.4575275,20.3355298 Z" id="Path"></path>
            <path d="M85.0235018,11.3936587 C85.0082256,11.5424887 85,11.6880973 85,11.8298402 C85,11.9716905 85.0082256,12.1169769 85.0235018,12.2659143 C85.039953,12.4149591 85.0634548,12.5461787 85.0963572,12.659573 L86.6627497,12.659573 L86.6627497,21.9147395 C86.8390129,21.9429807 87.0364277,21.9642421 87.2526439,21.9786312 C87.4700353,21.9925907 87.6580494,22 87.8190364,22 C87.9952996,22 88.1927145,21.9925907 88.4101058,21.9786312 C88.626322,21.9642421 88.8225617,21.9429807 89,21.9147395 L89,11 L85.0963572,11 C85.0634548,11.1137165 85.039953,11.2447212 85.0235018,11.3936587 Z" id="Path"></path>
            <path d="M97.0602203,20.1563312 C96.8066095,20.2248874 96.5167687,20.2761284 96.1906977,20.3099535 C95.8636475,20.3441813 95.5463892,20.3611945 95.2399021,20.3611945 C95,20.3611945 94.7463892,20.3477047 94.480049,20.3201212 C94.2137087,20.2929403 93.9698898,20.2177399 93.7505508,20.0949226 C93.5302326,19.9720046 93.3471236,19.7947249 93.2002448,19.5623787 C93.053366,19.3301333 92.9799266,19.0092982 92.9799266,18.5995717 C92.9799266,17.957801 93.196328,17.4800216 93.6301102,17.1656295 C94.0629131,16.85164 94.6935129,16.6945949 95.519951,16.6945949 C95.7334149,16.6945949 95.9929009,16.708286 96.3003672,16.7354669 C96.6068543,16.7629498 96.8604651,16.7901307 97.0602203,16.8175129 L97.0602203,20.1563312 Z M97.9600979,11.9320021 C97.2668299,11.310768 96.253366,11 94.9206854,11 C94.4134639,11 93.8866585,11.0409727 93.3402693,11.1228173 C92.7929009,11.2047626 92.2935129,11.3210364 91.8401469,11.4710345 C91.8401469,12.0994161 91.9664627,12.6387048 92.2200734,13.0893034 C92.6068543,12.9664861 93.0034272,12.8676282 93.4097919,12.7923271 C93.8171359,12.7174287 94.2528764,12.6796775 94.719951,12.6796775 C95.4798042,12.6796775 96.0604651,12.8368232 96.4599755,13.1508127 C96.8604651,13.4651041 97.0602203,14.0249295 97.0602203,14.8304902 L97.0602203,15.2197807 C96.8731946,15.1925998 96.6430845,15.1685397 96.3698898,15.1480031 C96.0966952,15.1275671 95.7471236,15.1172988 95.3201958,15.1172988 C94.7463892,15.1172988 94.2,15.1889757 93.680049,15.3324304 C93.1600979,15.4757843 92.6998776,15.694238 92.3003672,15.9877915 C91.8998776,16.281647 91.5835985,16.6503002 91.3505508,17.0939525 C91.1165239,17.5379068 91,18.0535381 91,18.6404437 C91,19.2415437 91.0998776,19.7536516 91.2996328,20.1768679 C91.5003672,20.6002855 91.7833537,20.9485028 92.1505508,21.2215196 C92.5167687,21.4948384 92.9632803,21.6926548 93.4900857,21.8154721 C94.0168911,21.9384907 94.6063647,22 95.2604651,22 C95.9537332,22 96.6332925,21.9416115 97.3001224,21.8258411 C97.9669523,21.70997 98.5339045,21.5973203 99,21.4877915 L99,14.9124355 C99,13.5470495 98.653366,12.5536388 97.9600979,11.9320021 Z" id="Shape"></path>
        </g>
    </g>
</svg>