<svg width="40" height="40" viewBox="0 0 40 40" fill="none" xmlns="http://www.w3.org/2000/svg">
<path d="M20 40C31.0457 40 40 31.0457 40 20C40 8.95431 31.0457 0 20 0C8.95431 0 0 8.95431 0 20C0 31.0457 8.95431 40 20 40Z" fill="#E77AEB"/>
<path d="M14 19.2H10.8C10.3582 19.2 10 19.5581 10 20V28.8C10 29.2418 10.3582 29.6 10.8 29.6H14C14.4418 29.6 14.8 29.2418 14.8 28.8V20C14.8 19.5581 14.4418 19.2 14 19.2Z" fill="#F1AFF3"/>
<path d="M21.2 13.2H18C17.5582 13.2 17.2 13.5581 17.2 14V28.8C17.2 29.2418 17.5582 29.6 18 29.6H21.2C21.6418 29.6 22 29.2418 22 28.8V14C22 13.5581 21.6418 13.2 21.2 13.2Z" fill="white"/>
<path d="M28.4 10.8H25.2C24.7582 10.8 24.4 11.1582 24.4 11.6V28.8001C24.4 29.2419 24.7582 29.6001 25.2 29.6001H28.4C28.8419 29.6001 29.2 29.2419 29.2 28.8001V11.6C29.2 11.1582 28.8419 10.8 28.4 10.8Z" fill="white"/>
</svg>
