<svg width="109" height="80" viewBox="0 0 109 80" fill="none" xmlns="http://www.w3.org/2000/svg">
<path d="M32.3029 46.2458C30.0279 44.8256 28.919 41.8442 29.4767 38.6498C30.1476 34.8238 32.9431 32.5195 36.9706 32.4464C34.0456 25.6749 27.3093 20.9343 19.4628 20.9343C8.93301 20.9343 0.399414 29.4697 0.399414 39.9995C0.399414 50.5307 8.93275 59.0658 19.4628 59.0658C27.4032 59.0658 34.2067 54.2115 37.0741 47.3087C36.8584 47.3241 36.6417 47.3352 36.4232 47.3352C34.8905 47.3349 33.4272 46.9481 32.3029 46.2458ZM13.7685 44.6315C12.5907 44.052 11.7787 42.8424 11.7787 41.4415C11.7787 39.4782 15.334 33.9071 15.334 33.9071C15.334 33.9071 15.5949 34.3153 15.973 34.9466C17.5299 37.8703 18.4975 40.3256 18.4975 41.357C18.4975 43.3574 17.017 44.9864 15.1973 44.9864C14.704 44.9864 14.2248 44.8639 13.7714 44.6269L13.7685 44.6315ZM19.4724 48.958C17.2435 48.958 15.3077 47.7212 14.3005 45.8984C14.5938 45.9669 14.8931 46.0047 15.1971 46.0047C17.5783 46.0047 19.5151 43.9194 19.5151 41.357C19.5151 39.6997 17.8364 36.3007 16.9874 34.6866C18.2927 32.3492 19.4724 30.4996 19.4724 30.4996C19.4724 30.4996 25.3908 39.7703 25.3908 43.0391C25.3908 46.3074 22.7425 48.958 19.4724 48.958Z" fill="#808A9E"/>
<path d="M105.448 35.5337C104.811 34.9815 104.656 34.5821 104.987 33.7797L105.556 32.3717L102.851 32.3689L102.563 33.3973C102.14 34.9094 101.257 36.1503 99.9492 37.0637C99.6216 37.2927 99.4253 37.3686 99.198 36.9136C98.4221 35.358 97.0587 34.6382 95.4037 34.3548C93.6667 34.0589 89.6014 34.2048 89.6014 34.2048L89.4699 34.8937C89.2478 35.9537 88.7789 36.8768 87.803 37.4564C87.5199 37.6247 87.3002 37.7325 87.1151 37.5686C87.0338 37.4963 86.9582 37.3686 86.8869 37.1669C85.4447 33.0686 80.2226 33.0007 78.046 35.034C76.138 36.8145 75.7996 39.071 76.2245 41.4967C76.4991 43.0619 77.2385 44.3854 78.6621 45.2202C82.3846 47.4077 86.8959 45.0862 87.3017 40.7831C87.3331 40.4462 87.2111 40.0368 87.7225 39.912C88.3393 39.7619 88.8574 39.3857 89.4536 39.0643C89.6531 39.4366 89.5779 39.7406 89.5792 40.0321C89.5872 43.6144 89.5857 48.7281 89.5893 52.3099L92.3547 52.3153L92.348 45.4851C92.348 45.4851 92.7631 45.571 93.0066 45.6325C94.2344 45.9527 95.4678 45.8772 96.6413 45.4156C98.8663 44.5342 99.6075 42.6643 99.7568 40.4658C99.7912 39.9614 99.9014 39.649 100.406 39.4333C101.326 39.0393 102.141 38.441 102.748 37.6489C103.173 37.0943 103.488 37.276 103.835 37.6311C104.805 38.6281 104.966 39.8492 104.711 41.1495C104.374 42.8717 102.994 43.8277 101.293 43.5694L100.238 43.4106L100.241 45.6482L100.822 45.7959C102.951 46.3701 105.612 45.3646 106.714 43.4855C108.251 40.8652 107.761 37.5315 105.448 35.5337ZM84.2313 41.383C83.9675 42.2067 83.624 42.9646 82.8182 43.3812C81.5274 44.0467 79.9694 43.4404 79.3894 42.0451C79.1022 41.3477 78.9241 40.6168 78.9802 39.9627C78.9706 38.87 79.1637 37.9412 79.736 37.121C80.3155 36.289 81.1465 36.0564 82.1069 36.1678C82.9981 36.2697 83.5491 36.8228 83.9351 37.5892L84.1871 38.1849L83.616 38.1885H82.8808V40.4447L83.571 40.449C83.7336 40.449 84.4763 40.449 84.4763 40.449C84.4688 40.6701 84.2313 41.383 84.2313 41.383ZM96.745 41.0062C96.5106 42.6653 94.7436 44.212 92.8504 43.1316C92.4952 42.9304 92.3411 42.9677 92.3447 42.5521V36.5158L93.0161 36.5106C94.3293 36.5304 95.5831 36.6383 96.4076 37.909C95.9949 38.2235 95.3381 38.2559 95.3381 38.2559L95.3327 40.3551L96.1704 40.3219C96.4221 40.3114 96.8274 40.29 96.8274 40.29L96.745 41.0062Z" fill="#808A9E"/>
<path d="M69.7668 36.1217L69.764 34.16L67.0781 34.1518L67.0734 41.0584C67.0611 42.1485 66.157 43.0688 65.1696 43.0755C64.2349 43.0783 63.8687 42.5304 63.8561 41.14C63.8561 40.931 63.8561 40.7179 63.8561 40.5077V26.9875L59.7975 26.9836L59.7939 29.265L60.7808 29.2614C61.1537 29.3108 61.102 29.7463 61.1058 30.0152C61.1156 31.0065 61.0724 32.0009 61.122 32.9911C61.1537 33.6149 60.9072 33.7536 60.3441 33.7444C59.4076 33.731 58.4837 33.8622 57.5969 34.1798C54.4591 35.3 52.7187 38.6829 53.4696 42.155C53.833 43.8385 54.5644 45.2773 56.331 45.7684C58.3682 46.3325 60.2116 45.9727 61.5356 44.1257C62.6991 45.7946 63.7701 46.2043 65.4578 45.7552C66.0291 45.6052 67.101 45.1011 67.101 45.1011L67.0981 45.8528L69.9884 45.8543L69.9977 40.483C69.9977 39.16 70.5607 37.9162 71.7592 37.1066C72.0459 36.9126 72.2306 36.7664 72.5364 36.8647C72.9077 36.9872 72.8635 37.6537 72.8635 37.6537L72.865 38.5833L75.2215 38.5804V34.6448L75.2249 33.8417L74.4541 33.8483C72.5757 33.8262 69.7668 36.1217 69.7668 36.1217ZM60.9535 41.3538C60.5729 42.552 59.4544 43.3411 58.223 43.2446C57.1188 43.1596 56.4517 42.3946 56.2868 41.0196C56.031 38.9242 56.8985 37.1655 58.5195 36.4154C59.2105 36.0978 59.9202 36.1542 60.6398 36.1732C61.0456 36.1838 61.1169 36.4421 61.1141 36.7808C61.1048 37.4113 61.1105 38.0408 61.1105 38.845C61.0631 39.5655 61.236 40.467 60.9535 41.3538Z" fill="#808A9E"/>
<path d="M49.1908 34.3757C47.182 33.4284 45.1415 33.4497 43.2744 34.711C41.2838 36.0525 40.6842 38.1309 40.8319 40.3904C40.8618 40.8454 40.9982 41.4645 40.9982 41.4645C40.9982 41.4645 40.3031 42.1607 40.0169 42.4401C39.2995 43.1357 38.4191 43.4968 37.4432 43.6093C35.633 43.8154 34.1785 42.9154 33.7204 41.3305C33.1692 39.4212 33.9855 37.2183 35.5165 36.4813C35.8381 36.3279 36.173 36.2394 36.5299 36.2015C36.5199 36.2015 36.5114 36.2015 36.5085 36.2015C36.5134 36.2015 36.5265 36.2003 36.5515 36.1972C36.5448 36.1985 36.5358 36.2 36.5302 36.2015C36.6884 36.2003 37.5387 36.2363 37.5387 37.1344L37.5482 38.2657L39.941 38.2693V34.0025C39.941 34.0025 39.0545 33.8908 38.1079 33.8095C34.4637 33.4981 31.4998 35.0337 30.8266 38.8862C30.3662 41.5173 31.2371 44.0012 33.0488 45.1322C35.4215 46.6158 39.3666 46.1966 41.349 44.2238C41.5384 44.0362 41.8158 43.7837 41.8158 43.7837C41.8158 43.7837 42.05 44.0192 42.2178 44.2073C43.9536 46.1305 46.955 46.5847 49.2348 45.3358C51.3546 44.1726 52.4715 41.4676 52.0085 38.6139C51.7092 36.7741 50.9526 35.2074 49.1908 34.3757ZM48.654 42.2358C48.2538 43.135 47.5217 43.6275 46.5322 43.6458C45.52 43.662 44.7253 43.2387 44.283 42.2976C43.5037 40.6511 43.4924 38.9907 44.347 37.373C44.7943 36.5245 45.4652 36.1815 46.404 36.1748C47.4658 36.1104 48.2085 36.62 48.638 37.5333C49.3717 39.0843 49.3496 40.6727 48.654 42.2358Z" fill="#808A9E"/>
</svg>
