<svg width="32" height="32" viewBox="0 0 32 32" fill="none" xmlns="http://www.w3.org/2000/svg">
<path d="M25.6663 8.99996C25.6663 8.26359 25.0694 7.66663 24.333 7.66663H7.66634C6.92997 7.66663 6.33301 8.26357 6.33301 8.99996V10.7275C6.33301 11.3458 6.77081 11.8641 7.32006 12.1481C8.7137 12.8684 9.66634 14.3229 9.66634 16C9.66634 17.677 8.7137 19.1314 7.32006 19.8518C6.77081 20.1358 6.33301 20.6541 6.33301 21.2724V23C6.33301 23.7364 6.92995 24.3333 7.66634 24.3333H24.333C25.0694 24.3333 25.6663 23.7364 25.6663 23V21.2724C25.6663 20.6541 25.2285 20.1358 24.6793 19.8518C23.2857 19.1314 22.333 17.677 22.333 16C22.333 14.3229 23.2857 12.8684 24.6793 12.1481C25.2285 11.8641 25.6663 11.3458 25.6663 10.7275V8.99996Z" fill="url(#paint0_linear)" stroke="#005AEE" stroke-width="2" stroke-linecap="round" stroke-linejoin="round"/>
<defs>
<linearGradient id="paint0_linear" x1="15.9997" y1="7.66663" x2="15.9997" y2="18.8571" gradientUnits="userSpaceOnUse">
<stop stop-color="#E6EFFE"/>
<stop offset="1" stop-color="#CCDEFC" stop-opacity="0"/>
</linearGradient>
</defs>
</svg>
