<svg width="32" height="32" viewBox="0 0 32 32" fill="none" xmlns="http://www.w3.org/2000/svg">
<path d="M11.2003 8H7.46699C7.02517 8 6.66699 8.42981 6.66699 8.96V23.04C6.66699 23.5702 7.02517 24 7.46699 24H11.2003C11.6422 24 12.0003 23.5702 12.0003 23.04V8.96C12.0003 8.42981 11.6422 8 11.2003 8Z" stroke="#005AEE" stroke-width="2" stroke-linecap="round" stroke-linejoin="round"/>
<path d="M24.5333 8H20.8C20.3581 8 20 8.42981 20 8.96V23.04C20 23.5702 20.3581 24 20.8 24H24.5333C24.9752 24 25.3333 23.5702 25.3333 23.04V8.96C25.3333 8.42981 24.9752 8 24.5333 8Z" stroke="#005AEE" stroke-width="2" stroke-linecap="round" stroke-linejoin="round"/>
<path d="M2.66699 18.1334V13.8667C2.66699 13.5722 3.02517 13.3334 3.46699 13.3334H5.86699C6.30882 13.3334 6.66699 13.5722 6.66699 13.8667V18.1334C6.66699 18.428 6.30882 18.6667 5.86699 18.6667H3.46699C3.02517 18.6667 2.66699 18.428 2.66699 18.1334Z" stroke="#005AEE" stroke-width="2" stroke-linecap="round" stroke-linejoin="round"/>
<path d="M29.333 18.1334V13.8667C29.333 13.5722 28.9749 13.3334 28.533 13.3334H26.133C25.6911 13.3334 25.333 13.5722 25.333 13.8667V18.1334C25.333 18.428 25.6911 18.6667 26.133 18.6667H28.533C28.9749 18.6667 29.333 18.428 29.333 18.1334Z" stroke="#005AEE" stroke-width="1.5" stroke-linecap="round" stroke-linejoin="round"/>
<path d="M12 16H20" stroke="#005AEE" stroke-width="2" stroke-linecap="round" stroke-linejoin="round"/>
</svg>
