<svg width="141" height="80" viewBox="0 0 141 80" fill="none" xmlns="http://www.w3.org/2000/svg">
<path d="M33.2062 30.5027C32.2928 30.299 32.0044 30.248 30.7064 30.248C29.8411 30.248 29.4084 30.248 29.12 30.299C25.6586 30.7573 23.0627 32.6924 21.8608 35.8498C21.5243 36.6646 21.2839 37.734 21.1878 38.6506C21.1397 38.9053 21.1397 39.4145 21.1397 40.0256C21.1397 40.8913 21.1397 41.146 21.2359 41.5534C21.5724 43.7941 22.3896 45.5764 23.7357 47.0023C25.0818 48.4282 26.8605 49.2939 29.0238 49.6504C29.6488 49.7523 31.4756 49.7523 32.1486 49.6504C34.7446 49.2939 36.8118 48.0717 38.2059 46.1366C39.1193 44.8635 39.6962 43.3867 39.9366 41.6043C39.9846 41.146 40.0327 40.9423 40.0327 40.0765C40.0327 38.7525 39.9366 37.9886 39.6481 36.8683C38.6386 33.6091 36.4272 31.3684 33.2062 30.5027ZM33.1582 42.1135C32.8697 43.2339 32.2448 43.8959 31.3314 44.2015C30.9948 44.3033 30.0814 44.3033 29.793 44.2015C29.2161 44.0487 28.7834 43.7431 28.4469 43.2848C28.0143 42.6228 27.822 41.8589 27.7258 40.5858C27.6297 39.109 27.87 37.8358 28.3027 37.0211C28.495 36.7155 28.8796 36.3081 29.2161 36.1044C29.793 35.7989 30.5622 35.697 31.2833 35.9007C32.389 36.1553 33.0139 37.0211 33.3024 38.5997C33.3504 39.0071 33.3985 39.1599 33.3985 40.0765C33.3504 41.095 33.3024 41.4515 33.1582 42.1135ZM76.2323 39.1599V49.0902C76.1842 49.1921 73.7805 49.4976 72.5306 49.6504C71.1845 49.7523 69.0212 49.8032 68.0597 49.7013C64.8868 49.4467 62.4351 48.1227 60.9448 45.9329C59.5987 43.9468 59.0699 41.095 59.4545 38.0905C59.791 35.7479 60.8006 33.7619 62.387 32.4887C63.8292 31.3175 65.8483 30.6045 68.1078 30.3499C68.3482 30.3499 68.5885 30.299 68.6366 30.299C68.6847 30.299 69.3577 30.299 70.0788 30.299C72.0498 30.299 73.444 30.4517 75.0304 30.7573C75.7996 30.9101 75.7996 30.9101 75.7515 31.0628C75.7515 31.1647 75.3189 34.0165 75.0785 35.5442C75.0304 35.8498 74.9823 36.1044 74.9823 36.1553C74.9823 36.1553 74.742 36.1553 74.5016 36.1044C73.0594 35.9007 72.0018 35.7989 70.7999 35.8498C69.2135 35.9007 68.252 36.1044 67.3386 36.7155C67.0021 36.9192 66.4733 37.4285 66.281 37.7849C65.8003 38.5488 65.5599 39.6182 65.656 40.7386C65.7041 41.6552 65.8964 42.2663 66.3291 42.9283C66.7617 43.5904 67.4348 44.0487 68.3001 44.2524C68.5405 44.3033 68.7327 44.3033 69.3577 44.3033H70.1269V39.2108L76.2323 39.1599ZM139.065 30.6554V36.1553H133.728V49.2939H127.335V36.2063H122.239V30.6554H139.065ZM13.7363 30.7064H20.0821V49.3449H13.7363V42.8265H8.88089V49.3449H2.53516V30.7064H8.88089V37.072H13.7363V30.7064ZM52.7723 30.7064H58.3007V49.3449H50.4647L46.5707 39.0071V49.3449H40.9461V30.7064H48.9264L52.7242 41.4515L52.7723 30.7064ZM90.0775 39.2108L96.3271 49.3958H88.3949L85.174 43.4885L83.876 45.2709V49.3958H77.338V30.7064H83.876V37.0211L88.3468 30.7064H96.2309L90.0775 39.2108ZM97.1924 30.7064H103.73V49.3449H97.1924V30.7064ZM111.326 30.7064L104.692 49.3449H111.759L112.48 46.2894H118.105L118.778 49.3449H125.652L119.354 30.7064H111.326ZM113.586 41.5024L115.268 34.5257L116.903 41.5024H113.586Z" fill="#808A9E"/>
</svg>
