<svg width="20" height="20" viewBox="0 0 20 20" fill="none" xmlns="http://www.w3.org/2000/svg">
<path fill-rule="evenodd" clip-rule="evenodd" d="M13.5 3H6.5C4.57518 3 3 4.57448 3 6.5V13.5C3 15.4248 4.57518 17 6.5 17H13.5C15.4248 17 17 15.4248 17 13.5V6.5C17 4.57448 15.4248 3 13.5 3ZM9.99998 12.9163C8.38893 12.9163 7.08325 11.6101 7.08325 9.99973C7.08325 8.38868 8.38893 7.08301 9.99998 7.08301C11.6103 7.08301 12.9167 8.38868 12.9167 9.99973C12.9167 11.6101 11.6103 12.9163 9.99998 12.9163ZM12.9167 6.20801C12.9167 6.69118 13.308 7.08301 13.7917 7.08301C14.2754 7.08301 14.6667 6.69118 14.6667 6.20801C14.6667 5.72483 14.2754 5.33301 13.7917 5.33301C13.308 5.33301 12.9167 5.72483 12.9167 6.20801Z" fill="white"/>
</svg>
