<svg width="32" height="32" viewBox="0 0 32 32" fill="none" xmlns="http://www.w3.org/2000/svg">
<path d="M16.0003 15C18.3936 15 20.3337 13.0599 20.3337 10.6667C20.3337 8.27347 18.3936 6.33337 16.0003 6.33337C13.6071 6.33337 11.667 8.27347 11.667 10.6667C11.667 13.0599 13.6071 15 16.0003 15Z" fill="url(#paint0_linear)" stroke="#005AEE" stroke-width="2" stroke-linecap="round" stroke-linejoin="round"/>
<path d="M9.12996 25.6666H22.87C24.3925 25.6666 25.5653 24.3574 24.8544 23.0112C23.8084 21.0308 21.424 18.6666 16 18.6666C10.576 18.6666 8.19152 21.0308 7.14561 23.0112C6.43459 24.3574 7.6074 25.6666 9.12996 25.6666Z" fill="url(#paint1_linear)" stroke="#005AEE" stroke-width="2" stroke-linecap="round" stroke-linejoin="round"/>
<defs>
<linearGradient id="paint0_linear" x1="16.0003" y1="6.33337" x2="16.0003" y2="12.1524" gradientUnits="userSpaceOnUse">
<stop stop-color="#E6EFFE"/>
<stop offset="1" stop-color="#CCDEFC" stop-opacity="0"/>
</linearGradient>
<linearGradient id="paint1_linear" x1="16" y1="18.6666" x2="16" y2="23.3666" gradientUnits="userSpaceOnUse">
<stop stop-color="#E6EFFE"/>
<stop offset="1" stop-color="#CCDEFC" stop-opacity="0"/>
</linearGradient>
</defs>
</svg>
