<svg width="32" height="32" viewBox="0 0 32 32" fill="none" xmlns="http://www.w3.org/2000/svg">
<path d="M11.7217 9.77783C11.7217 11.7108 10.1547 13.2778 8.22168 13.2778C6.28868 13.2778 4.72168 11.7108 4.72168 9.77783C4.72168 7.84484 6.28868 6.27783 8.22168 6.27783C10.1547 6.27783 11.7217 7.84484 11.7217 9.77783Z" stroke="#005AEE" stroke-width="2" stroke-linecap="round" stroke-linejoin="round" id="svgInternalID"/>
<path d="M11.7217 22.2223C11.7217 24.1552 10.1547 25.7223 8.22168 25.7223C6.28868 25.7223 4.72168 24.1552 4.72168 22.2223C4.72168 20.2894 6.28868 18.7223 8.22168 18.7223C10.1547 18.7223 11.7217 20.2894 11.7217 22.2223Z" stroke="#005AEE" stroke-width="2" stroke-linecap="round" stroke-linejoin="round"/>
<path d="M11.333 20.6667L27.2775 7.83337" stroke="#005AEE" stroke-width="2" stroke-linecap="round" stroke-linejoin="round"/>
<path d="M11.333 11.3334L27.2775 22.6112" stroke="#005AEE" stroke-width="2" stroke-linecap="round" stroke-linejoin="round"/>
</svg>
