<svg width="119" height="36" viewBox="0 0 119 36" fill="none" xmlns="http://www.w3.org/2000/svg">
<path d="M17.9975 8.99896C20.4825 8.99896 22.497 6.98447 22.497 4.49948C22.497 2.01449 20.4825 0 17.9975 0C15.5125 0 13.498 2.01449 13.498 4.49948C13.498 6.98447 15.5125 8.99896 17.9975 8.99896Z" fill="white"/>
<path d="M31.4965 8.99896C33.9815 8.99896 35.996 6.98447 35.996 4.49948C35.996 2.01449 33.9815 0 31.4965 0C29.0116 0 26.9971 2.01449 26.9971 4.49948C26.9971 6.98447 29.0116 8.99896 31.4965 8.99896Z" fill="white"/>
<path d="M17.9975 35.9955C20.4825 35.9955 22.497 33.9811 22.497 31.4961C22.497 29.0111 20.4825 26.9966 17.9975 26.9966C15.5125 26.9966 13.498 29.0111 13.498 31.4961C13.498 33.9811 15.5125 35.9955 17.9975 35.9955Z" fill="white"/>
<path d="M31.4964 26.9969C31.2573 26.9969 31.0183 27.025 30.7933 27.0531C27.6859 27.5452 23.2004 23.5238 22.4974 20.1211V15.7482C22.4974 14.5108 21.485 13.4984 20.2477 13.4984H15.8747C12.9641 12.8938 9.60357 9.53327 8.99896 6.62267V0H0V8.99896H6.62267C9.53327 9.60357 12.8938 12.9641 13.4984 15.8747V20.2477C13.4984 21.485 14.5108 22.4974 15.7482 22.4974H20.1211C23.5238 23.2004 27.5452 27.6859 27.0531 30.7933C27.0109 31.0183 26.9969 31.2573 26.9969 31.4963C26.9969 34.2804 29.5138 36.4739 32.3963 35.9115C34.1539 35.574 35.5599 34.1539 35.9115 32.3962C36.4598 29.5138 34.2663 26.9969 31.4964 26.9969Z" fill="white"/>
<path d="M45.1211 12.6969H50.183V28.1357H54.9356V12.6969H59.9975V8.53491H45.1211V12.6969Z" fill="white"/>
<path d="M68.7014 14.5388C66.8594 14.5388 65.1721 15.7621 64.5253 18.1525V14.8763H60.2227V28.1357H64.7503V23.7768C64.7503 20.0226 65.6642 18.8274 67.5062 18.8274C68.2514 18.8274 68.9263 18.9399 69.5591 19.1648L70.6699 14.8903C70.1215 14.6513 69.4747 14.5388 68.7014 14.5388Z" fill="white"/>
<path d="M80.7932 14.8907V16.3108C79.9917 15.1719 78.5153 14.5532 77.1233 14.5532C75.3938 14.5532 73.8752 15.2141 72.5957 16.4936C71.3161 17.7732 70.6553 19.4183 70.6553 21.4993C70.6553 23.5803 71.3161 25.2254 72.5957 26.505C73.8752 27.7845 75.3797 28.4172 77.1233 28.4172C78.7403 28.4172 79.9636 27.8126 80.7932 26.6456V28.1501H85.3208V14.8907H80.7932ZM79.9636 23.4819C78.909 24.5364 77.1795 24.5364 76.0687 23.4819C75.0141 22.3711 75.0141 20.6416 76.0687 19.587C77.1795 18.4762 78.909 18.4762 79.9636 19.587C81.0744 20.6275 81.0744 22.3711 79.9636 23.4819Z" fill="white"/>
<path d="M116.03 14.8905V10.1379H111.573V14.8905H109.154V18.2089H111.573V28.1359H116.03V18.2089H118.814V14.8905H116.03Z" fill="white"/>
<path d="M106.511 7.91631C102.532 7.91631 100.142 10.1942 100.142 14.3984V14.8764H99.4244H97.4559H94.8265V14.3984C94.8547 12.9501 95.5718 12.2049 96.6685 12.2049H98.3699V7.90225H96.6685C92.6893 7.90225 90.2989 10.1801 90.2989 14.3843V14.8624H87.8242V18.1948H90.2989V28.1218H94.8265V18.1948H97.4559H99.4244H100.142V28.1218H104.669V18.1948H107.453V14.8624H104.669V14.3843C104.697 12.936 105.414 12.1908 106.511 12.1908H107.917H108.227V7.88818H107.917H106.511V7.91631Z" fill="white"/>
</svg>
