<svg width="20" height="20" viewBox="0 0 20 20" fill="none" xmlns="http://www.w3.org/2000/svg">
<path d="M17.9168 5.5552C17.818 5.44951 17.6606 5.42327 17.5328 5.4912C17.378 5.56212 17.2174 5.61993 17.0528 5.664C17.2969 5.35987 17.4814 5.01248 17.5968 4.64C17.6284 4.51093 17.5769 4.37579 17.4674 4.30045C17.358 4.22511 17.2134 4.22525 17.104 4.3008C16.5941 4.58286 16.0499 4.79797 15.4848 4.9408C14.8779 4.33696 14.0562 3.99861 13.2 4C12.517 4.01502 11.8518 4.22123 11.28 4.5952C10.064 5.28 9.85285 6.8608 9.94245 7.84C7.68812 7.64989 5.60841 6.54995 4.18245 4.7936C4.12411 4.70387 4.02685 4.64694 3.92005 4.64C3.81334 4.64721 3.71728 4.70724 3.66405 4.8C3.00475 5.9417 3.05951 7.36052 3.80485 8.448C3.70885 8.384 3.60645 8.3072 3.50405 8.224C3.40858 8.12936 3.26413 8.10447 3.1425 8.16171C3.02086 8.21895 2.94797 8.34612 2.96005 8.48C2.97946 9.67097 3.57609 10.7783 4.56005 11.4496L4.31045 11.3792C4.19176 11.3423 4.06242 11.3774 3.97874 11.4693C3.89505 11.5612 3.87217 11.6933 3.92005 11.808C4.42234 12.9425 5.40622 13.7926 6.60165 14.1248C5.51185 14.7544 4.24932 15.019 2.99845 14.88C2.84723 14.8613 2.7038 14.9518 2.65562 15.0964C2.60744 15.2409 2.66786 15.3994 2.80005 15.4752C4.30492 16.353 6.01791 16.8105 7.76005 16.8V16.8C10.2205 16.7799 12.5529 15.7 14.16 13.8368C15.761 12.1209 16.6031 9.83234 16.496 7.488C17.0664 7.05222 17.5578 6.52187 17.9488 5.92C18.0157 5.80372 18.0029 5.65808 17.9168 5.5552Z" fill="white"/>
</svg>
