<svg width="70" height="70" viewBox="0 0 70 70" fill="none" xmlns="http://www.w3.org/2000/svg">
<rect x="14.3486" y="20.1306" width="28.913" height="28.913" fill="url(#paint0_linear)"/>
<path d="M44.0044 27.3581C42.9774 27.9743 42.6446 29.3063 43.2607 30.3333C43.8769 31.3603 45.2089 31.6931 46.2359 31.077L44.0044 27.3581ZM55.9625 22.7121H58.131C58.131 21.9309 57.7109 21.21 57.0309 20.8251C56.3511 20.4402 55.5167 20.4507 54.8468 20.8527L55.9625 22.7121ZM55.9625 47.2882L54.8468 49.1476C55.5167 49.5495 56.3511 49.5602 57.0309 49.1751C57.7109 48.7902 58.131 48.0694 58.131 47.2882H55.9625ZM46.2359 38.9234C45.2089 38.3072 43.8769 38.64 43.2607 39.667C42.6446 40.694 42.9774 42.026 44.0044 42.6422L46.2359 38.9234ZM46.2359 31.077L57.0783 24.5716L54.8468 20.8527L44.0044 27.3581L46.2359 31.077ZM53.794 22.7121V47.2882H58.131V22.7121H53.794ZM57.0783 45.4288L46.2359 38.9234L44.0044 42.6422L54.8468 49.1476L57.0783 45.4288ZM19.8212 21.9893H38.6147V17.6523H19.8212V21.9893ZM42.2288 25.6034V44.3969H46.5658V25.6034H42.2288ZM38.6147 48.011H19.8212V52.348H38.6147V48.011ZM16.2071 44.3969V25.6034H11.8701V44.3969H16.2071ZM19.8212 48.011C17.8252 48.011 16.2071 46.3931 16.2071 44.3969H11.8701C11.8701 48.7882 15.4299 52.348 19.8212 52.348V48.011ZM42.2288 44.3969C42.2288 46.3931 40.6108 48.011 38.6147 48.011V52.348C43.006 52.348 46.5658 48.7882 46.5658 44.3969H42.2288ZM38.6147 21.9893C40.6108 21.9893 42.2288 23.6074 42.2288 25.6034H46.5658C46.5658 21.2122 43.006 17.6523 38.6147 17.6523V21.9893ZM19.8212 17.6523C15.4299 17.6523 11.8701 21.2122 11.8701 25.6034H16.2071C16.2071 23.6074 17.8252 21.9893 19.8212 21.9893V17.6523Z" fill="#00143C"/>
<defs>
<linearGradient id="paint0_linear" x1="28.8051" y1="20.1306" x2="28.8051" y2="49.0437" gradientUnits="userSpaceOnUse">
<stop stop-color="#99A1B1"/>
<stop offset="1" stop-color="#808A9E" stop-opacity="0"/>
</linearGradient>
</defs>
</svg>
