<svg width="48" height="48" viewBox="0 0 48 48" fill="none" xmlns="http://www.w3.org/2000/svg">
<path d="M7 22L20 9" stroke="white" stroke-width="3" stroke-linecap="round" stroke-linejoin="round"/>
<path d="M9.8 41H11.2C12.7464 41 14 39.9057 14 38.5557V32.4443C14 31.0943 12.7464 30 11.2 30H9.8C8.25362 30 7 31.0943 7 32.4443V38.5557C7 39.9057 8.25362 41 9.8 41Z" fill="url(#paint0_linear)" stroke="white" stroke-width="3" stroke-linecap="round" stroke-linejoin="round"/>
<path d="M23.8 41H25.2C26.7464 41 28 39.9255 28 38.6001V25.3999C28 24.0745 26.7464 23 25.2 23H23.8C22.2536 23 21 24.0745 21 25.3999V38.6001C21 39.9255 22.2536 41 23.8 41Z" fill="url(#paint1_linear)" stroke="white" stroke-width="3" stroke-linecap="round" stroke-linejoin="round"/>
<path d="M37.8 41H39.2C40.7464 41 42 39.9502 42 38.6552V9.3448C42 8.04981 40.7464 7 39.2 7H37.8C36.2536 7 35 8.04981 35 9.3448V38.6552C35 39.9502 36.2536 41 37.8 41Z" fill="url(#paint2_linear)" stroke="white" stroke-width="3" stroke-linecap="round" stroke-linejoin="round"/>
<path d="M22 15V7H14" stroke="white" stroke-width="3" stroke-linecap="round" stroke-linejoin="round"/>
<defs>
<linearGradient id="paint0_linear" x1="10.5" y1="30" x2="10.5" y2="41" gradientUnits="userSpaceOnUse">
<stop stop-color="white" stop-opacity="0.29"/>
<stop offset="1" stop-color="white" stop-opacity="0"/>
<stop offset="1" stop-color="white" stop-opacity="0"/>
</linearGradient>
<linearGradient id="paint1_linear" x1="24.5" y1="23" x2="24.5" y2="41" gradientUnits="userSpaceOnUse">
<stop stop-color="white" stop-opacity="0.29"/>
<stop offset="1" stop-color="white" stop-opacity="0"/>
<stop offset="1" stop-color="white" stop-opacity="0"/>
</linearGradient>
<linearGradient id="paint2_linear" x1="38.5" y1="7" x2="38.5" y2="41" gradientUnits="userSpaceOnUse">
<stop stop-color="white" stop-opacity="0.29"/>
<stop offset="1" stop-color="white" stop-opacity="0"/>
<stop offset="1" stop-color="white" stop-opacity="0"/>
</linearGradient>
</defs>
</svg>
