<svg width="20" height="20" viewBox="0 0 20 20" fill="none" xmlns="http://www.w3.org/2000/svg">
<path fill-rule="evenodd" clip-rule="evenodd" d="M4.69311 6.57439C3.87594 6.48279 3.27564 5.74066 3.33484 4.89519C3.39403 4.04972 4.09149 3.40421 4.91294 3.43463C5.7344 3.46504 6.38517 4.16047 6.38542 5.00814C6.33523 5.92144 5.57899 6.62135 4.69311 6.57439ZM13.553 16.777V11.9251C13.553 10.932 13.2734 9.93445 12.1373 9.93445C11.0012 9.93445 10.5252 10.932 10.5252 11.9513V16.777H7.49695V7.89133H10.5282V9.09008C11.3257 8.04445 12.0189 7.61133 13.2756 7.61133C14.5322 7.61133 16.5779 8.21945 16.5779 11.7282V16.777H13.5551H13.553ZM3.16968 16.7772H6.20556H6.20598V7.8916H3.16968V16.7772Z" fill="white"/>
</svg>
