<svg width="48" height="48" viewBox="0 0 48 48" fill="none" xmlns="http://www.w3.org/2000/svg">
<path d="M3.52526 40.4397L24.4395 19.5253C25.14 18.8249 26.2754 18.8249 26.9759 19.5253L28.4746 21.0242C29.1751 21.7245 29.1751 22.86 28.4746 23.5604L7.56037 44.4748C6.86002 45.1751 5.7245 45.1751 5.02415 44.4748L3.52526 42.9759C2.82491 42.2755 2.82491 41.14 3.52526 40.4397Z" stroke="white" stroke-width="3" stroke-linecap="round" stroke-linejoin="round"/>
<path d="M3.52526 40.4396L20 24C20.5 23.5 21.2995 24.2996 22 25L23.5 26.5C24.2005 27.2004 24.5 27.5 24 28L7.56037 44.4748C6.86002 45.1751 5.7245 45.1751 5.02415 44.4748L3.52526 42.9758C2.82491 42.2755 2.82491 41.14 3.52526 40.4396Z" fill="url(#paint0_linear)" stroke="white" stroke-width="3" stroke-linecap="round" stroke-linejoin="round"/>
<path d="M21 24L24 27" stroke="white" stroke-width="3" stroke-linecap="round" stroke-linejoin="round"/>
<line x1="13.1213" y1="11" x2="17.4853" y2="15.364" stroke="white" stroke-width="3" stroke-linecap="round"/>
<line x1="25.5" y1="3.5" x2="25.5" y2="12.5" stroke="white" stroke-width="3" stroke-linecap="round"/>
<line x1="44.5" y1="21.5" x2="35.5" y2="21.5" stroke="white" stroke-width="3" stroke-linecap="round"/>
<line x1="33.1213" y1="31" x2="37" y2="34.8787" stroke="white" stroke-width="3" stroke-linecap="round"/>
<line x1="37" y1="10.6066" x2="33.1213" y2="14.4853" stroke="white" stroke-width="3" stroke-linecap="round"/>
<defs>
<linearGradient id="paint0_linear" x1="13.578" y1="23.8438" x2="13.578" y2="45" gradientUnits="userSpaceOnUse">
<stop stop-color="white" stop-opacity="0.29"/>
<stop offset="1" stop-color="white" stop-opacity="0"/>
<stop offset="1" stop-color="white" stop-opacity="0"/>
</linearGradient>
</defs>
</svg>
