<svg width="40" height="40" viewBox="0 0 40 40" fill="none" xmlns="http://www.w3.org/2000/svg">
<path d="M20 40C31.0457 40 40 31.0457 40 20C40 8.95431 31.0457 0 20 0C8.95431 0 0 8.95431 0 20C0 31.0457 8.95431 40 20 40Z" fill="#FBC22D"/>
<path d="M20 31.6C21.9882 31.6 23.6 29.9882 23.6 28H16.4C16.4 29.9882 18.0118 31.6 20 31.6Z" fill="#FDDA81"/>
<path d="M18.4618 9.68492C14.9866 10.4126 11.9235 13.5076 11.9235 17.2152V22.5997L10.171 25.7133C9.8247 26.3284 10.1139 26.8304 10.8191 26.8304H29.1808C29.8874 26.8304 30.1762 26.3302 29.8291 25.7133L28.077 22.5997V17.2152C28.077 13.5076 25.0139 10.4126 21.5387 9.68492V9.1368C21.5387 8.29093 20.8499 7.59998 20.0002 7.59998C19.1523 7.59998 18.4618 8.28804 18.4618 9.1368V9.68492Z" fill="white"/>
</svg>
