<svg width="158" height="80" viewBox="0 0 158 80" fill="none" xmlns="http://www.w3.org/2000/svg">
<path d="M50.6435 36.0075C50.6435 36.528 50.737 36.9691 50.9236 37.3312C51.1102 37.6929 51.3581 37.9852 51.6676 38.2093C51.9731 38.4335 52.3326 38.6004 52.7412 38.7089C53.1513 38.8174 53.584 38.8711 54.0423 38.8711C54.3424 38.8711 54.6656 38.8452 55.0108 38.7948C55.355 38.7436 55.6776 38.6467 55.9796 38.5025C56.2803 38.3575 56.5326 38.158 56.7308 37.9051C56.9318 37.6522 57.0334 37.3312 57.0334 36.9395C57.0334 36.5196 56.8987 36.1798 56.6351 35.9197C56.3697 35.6605 56.0221 35.4389 55.5922 35.2576C55.1618 35.0775 54.6738 34.9249 54.1301 34.8021C53.5843 34.6789 53.0319 34.5382 52.4729 34.3788C51.8987 34.2344 51.34 34.0568 50.7942 33.847C50.2493 33.6382 49.7625 33.3671 49.332 33.0333C48.9013 32.7013 48.5546 32.2883 48.2888 31.7975C48.0244 31.306 47.8909 30.6977 47.8909 29.974C47.8909 29.1774 48.0594 28.4878 48.3957 27.9013C48.7327 27.3155 49.1742 26.8278 49.7203 26.4367C50.264 26.0456 50.8804 25.7567 51.5695 25.5682C52.2575 25.381 52.9462 25.2869 53.634 25.2869C54.4356 25.2869 55.208 25.3763 55.9468 25.5576C56.6861 25.7389 57.3417 26.0312 57.9138 26.4367C58.4887 26.8418 58.9435 27.3595 59.2805 27.9882C59.6175 28.6169 59.786 29.3809 59.786 30.2769H56.5173C56.4867 29.8148 56.3916 29.431 56.2247 29.1271C56.0596 28.8229 55.8423 28.5847 55.5688 28.4112C55.2965 28.2371 54.9814 28.1142 54.6231 28.0426C54.2652 27.9701 53.8838 27.9341 53.4843 27.9341C53.211 27.9341 52.9375 27.9626 52.6652 28.0201C52.3932 28.0786 52.1456 28.1798 51.9246 28.3233C51.7008 28.4687 51.5182 28.6535 51.3763 28.8776C51.2318 29.1018 51.1612 29.3734 51.1612 29.6911C51.1612 29.994 51.2178 30.2409 51.3316 30.4288C51.4469 30.6164 51.672 30.7871 52.0096 30.9393C52.3466 31.0906 52.814 31.2504 53.4089 31.4164C54.0032 31.5833 54.781 31.7894 55.7414 32.0351C55.9283 32.0782 56.1719 32.1392 56.4726 32.218C56.7746 32.2986 57.0941 32.4071 57.4314 32.5443C57.7678 32.6825 58.1029 32.8591 58.4424 33.0764C58.7769 33.2934 59.0861 33.561 59.3659 33.8792C59.6454 34.1975 59.8714 34.577 60.0433 35.0184C60.2168 35.4608 60.3019 35.97 60.3019 36.5484C60.3019 37.2574 60.1656 37.9154 59.8936 38.5235C59.6194 39.1315 59.2149 39.6555 58.6775 40.0966C58.1395 40.5386 57.473 40.8853 56.6777 41.1382C55.8811 41.3918 54.9601 41.5187 53.9147 41.5187C53.0672 41.5187 52.2472 41.4093 51.4513 41.192C50.6547 40.9757 49.9545 40.6431 49.3536 40.1954C48.7512 39.7458 48.2673 39.1747 47.9015 38.481C47.5367 37.787 47.36 36.9629 47.3738 36.0085L50.6435 36.0075Z" fill="#808A9E"/>
<path d="M61.2256 25.6558H65.9812L69.5725 36.3114H69.616L73.0145 25.6558H77.7669V41.1495H74.6057V30.1694H74.5635L70.7992 41.1495H68.1961L64.4312 30.2775H64.3893V41.1489H61.2256V25.6558Z" fill="#808A9E"/>
<path d="M83.8545 25.6558H87.318L93.0596 41.1495H89.5532L88.3919 37.7007H82.6506L81.4448 41.1495H78.0254L83.8545 25.6558ZM83.5316 35.161H87.5109L85.5764 29.4757H85.5308L83.5316 35.161Z" fill="#808A9E"/>
<path d="M95.6199 36.0073C95.6199 36.5278 95.7137 36.9689 95.9 37.3309C96.0872 37.6926 96.3348 37.9849 96.6428 38.2091C96.9504 38.4332 97.3068 38.6002 97.7179 38.7086C98.1233 38.8171 98.5582 38.8709 99.0162 38.8709C99.3178 38.8709 99.6405 38.8449 99.9853 38.7946C100.33 38.7433 100.653 38.6464 100.956 38.5023C101.257 38.3572 101.509 38.1578 101.708 37.9049C101.91 37.652 102.01 37.3309 102.01 36.9392C102.01 36.5194 101.877 36.1795 101.613 35.9194C101.344 35.6603 100.999 35.4386 100.568 35.2573C100.137 35.0772 99.6492 34.9247 99.1034 34.8018C98.5579 34.6787 98.0092 34.538 97.4452 34.3785C96.8753 34.2341 96.3154 34.0565 95.7705 33.8468C95.2269 33.6379 94.7386 33.3669 94.3081 33.033C93.877 32.701 93.5278 32.288 93.2643 31.7972C92.9973 31.3058 92.8666 30.6974 92.8666 29.9737C92.8666 29.1772 93.0351 28.4875 93.3718 27.9011C93.7088 27.3152 94.149 26.8275 94.6939 26.4364C95.2403 26.0453 95.8565 25.7565 96.5455 25.568C97.2299 25.3807 97.9198 25.2866 98.6088 25.2866C99.4119 25.2866 100.183 25.376 100.923 25.5573C101.662 25.7387 102.318 26.031 102.892 26.4364C103.463 26.8416 103.918 27.3593 104.256 27.988C104.593 28.6166 104.762 29.3807 104.762 30.2767H101.493C101.464 29.8146 101.368 29.4307 101.202 29.1268C101.038 28.8227 100.817 28.5844 100.544 28.4109C100.272 28.2368 99.9553 28.114 99.597 28.0424C99.2388 27.9698 98.8583 27.9339 98.4569 27.9339C98.1849 27.9339 97.9161 27.9623 97.6428 28.0199C97.3662 28.0783 97.1223 28.1796 96.9 28.3231C96.674 28.4685 96.4902 28.6532 96.3511 28.8774C96.2079 29.1015 96.136 29.3732 96.136 29.6908C96.136 29.9937 96.1941 30.2407 96.3095 30.4286C96.423 30.6162 96.6459 30.7868 96.9829 30.9391C97.3199 31.0904 97.7857 31.2502 98.3828 31.4162C98.978 31.5831 99.7571 31.7891 100.717 32.0348C100.906 32.078 101.15 32.1389 101.452 32.2177C101.753 32.2984 102.072 32.4068 102.407 32.5441C102.743 32.6823 103.081 32.8589 103.418 33.0762C103.754 33.2931 104.063 33.5607 104.343 33.879C104.623 34.1972 104.849 34.5767 105.021 35.0182C105.194 35.4605 105.28 35.9698 105.28 36.5481C105.28 37.2571 105.143 37.9152 104.87 38.5232C104.597 39.1313 104.192 39.6552 103.657 40.0964C103.118 40.5384 102.448 40.8851 101.652 41.138C100.857 41.3915 99.9368 41.5185 98.8883 41.5185C98.042 41.5185 97.2236 41.409 96.4274 41.1918C95.6299 40.9754 94.9324 40.6428 94.3281 40.1951C93.7276 39.7456 93.2421 39.1744 92.876 38.4807C92.5102 37.7867 92.3342 36.9626 92.3496 36.0082L95.6199 36.0073Z" fill="#808A9E"/>
<path d="M106.204 25.6558H109.58V31.6018H115.798V25.6558H119.174V41.1495H115.798V34.4663H109.58V41.1495H106.204V25.6558Z" fill="#808A9E"/>
<path d="M121.066 25.6558H124.443V41.1495H121.066V25.6558Z" fill="#808A9E"/>
<path d="M126.333 25.6558H129.691L136.102 36.0504H136.142V25.6558H139.306V41.1495H135.926L129.54 30.7777H129.496V41.1495H126.332L126.333 25.6558Z" fill="#808A9E"/>
<path d="M152.113 37.7929C152.252 37.6207 152.421 37.2771 152.421 37.2771L151.549 37.4575C150.717 36.9638 148.974 35.8484 148.974 35.8484L148.564 35.5999L149.271 35.462C149.271 35.462 154.875 34.4863 158 33.9418C157.512 37.0323 157.063 39.8746 156.529 43.2484C155.79 42.3159 154.594 40.8128 154.594 40.8128L154.655 39.8324L154.156 40.2601C151.641 42.0955 148.635 42.8289 145.373 41.4818C143.289 40.6199 141.847 39.07 141.007 36.992C139.281 32.73 141.352 27.9426 145.627 26.2297C149.491 24.6816 154.18 26.3829 155.65 29.9024C154.783 30.4082 153.027 31.1282 153.027 31.1282C153.027 31.1282 152.213 30.0818 151.675 29.6332C149.412 27.7497 146.183 28.338 144.386 30.6449C142.635 32.8907 142.984 36.2151 145.124 38.0414C146.839 39.4973 150.262 40.2145 152.113 37.7929Z" fill="#808A9E"/>
<path d="M49.2617 45.0234H50.591L53.8722 53.3404L57.14 45.0234H58.4699V54.5111H57.5655V46.3124H57.5396L54.2977 54.5111H53.4474L50.1918 46.3124H50.1646V54.5111H49.2617V45.0234Z" fill="#808A9E"/>
<path d="M68.6995 45.0234H69.7096L73.4298 54.5111H72.46L71.3043 51.5609H66.9857L65.8437 54.5111H64.873L68.6995 45.0234ZM67.2649 50.791H70.9988L69.1656 45.9275L67.2649 50.791Z" fill="#808A9E"/>
<path d="M87.9671 54.5106H87.3156L87.1962 52.784H87.1697C87.0093 53.121 86.812 53.4105 86.5782 53.6531C86.3428 53.8972 86.0836 54.0961 85.8004 54.2514C85.5175 54.4068 85.2139 54.5215 84.8903 54.5966C84.5668 54.6716 84.2326 54.7094 83.8878 54.7094C83.1431 54.7094 82.49 54.5741 81.9273 54.3033C81.3643 54.0342 80.8976 53.6709 80.5255 53.2154C80.1542 52.7587 79.8744 52.2319 79.6884 51.6332C79.5027 51.0349 79.4092 50.4134 79.4092 49.7657C79.4092 49.1192 79.5027 48.4958 79.6884 47.8987C79.8744 47.3003 80.1532 46.7723 80.5255 46.3168C80.8976 45.8604 81.3659 45.4971 81.9273 45.2274C82.4907 44.9582 83.1437 44.8225 83.8878 44.8225C84.3836 44.8225 84.8528 44.8885 85.2964 45.0216C85.7391 45.1548 86.1364 45.3537 86.4863 45.6194C86.8355 45.8857 87.1281 46.2149 87.3638 46.6091C87.5973 47.0046 87.7602 47.4573 87.8477 47.9709H86.9446C86.9174 47.6964 86.827 47.4191 86.6723 47.1409C86.5163 46.8614 86.3087 46.6073 86.0477 46.3765C85.7866 46.148 85.474 45.9589 85.1117 45.8129C84.7484 45.666 84.3404 45.5931 83.8893 45.5931C83.2594 45.5931 82.7204 45.7122 82.2675 45.9514C81.816 46.1912 81.4462 46.5072 81.1577 46.9011C80.8697 47.296 80.6565 47.743 80.5209 48.2438C80.3839 48.7446 80.3142 49.2514 80.3142 49.7644C80.3142 50.2877 80.3839 50.797 80.5209 51.2931C80.6578 51.7892 80.8697 52.2341 81.1577 52.6283C81.4462 53.0231 81.8154 53.3386 82.2675 53.5784C82.7192 53.8188 83.2597 53.9366 83.8893 53.9366C84.4111 53.9366 84.8788 53.8507 85.2905 53.6772C85.7016 53.504 86.0498 53.2632 86.334 52.9544C86.6166 52.6443 86.8298 52.276 86.9711 51.8518C87.1131 51.4275 87.1793 50.9602 87.1712 50.4559H83.9425V49.6853H87.9684L87.9671 54.5106Z" fill="#808A9E"/>
<path d="M98.0512 45.0234H99.06L102.784 54.5111H101.812L100.657 51.5609H96.339L95.1979 54.5111H94.2275L98.0512 45.0234ZM96.6163 50.791H100.351L98.5173 45.9275L96.6163 50.791Z" fill="#808A9E"/>
<path d="M108.747 45.0234H115.578V45.8212L109.332 53.7408H115.71V54.5111H108.321V53.714L114.567 45.7944H108.747L108.747 45.0234Z" fill="#808A9E"/>
<path d="M122.474 45.0234H123.378V54.5111H122.474V45.0234Z" fill="#808A9E"/>
<path d="M130.909 45.0234H131.918L137.445 53.0493H137.472V45.0234H138.377V54.5111H137.367L131.838 46.4859H131.814V54.5111H130.908L130.909 45.0234Z" fill="#808A9E"/>
<path d="M145.843 45.0234H152.394V45.7944H146.747V49.2232H152.034V49.9938H146.747V53.7408H152.459V54.5111H145.842L145.843 45.0234Z" fill="#808A9E"/>
<path d="M24.6891 45.9626C23.9438 45.2923 23.0378 44.7581 22.1272 44.326C19.942 43.2881 17.6942 42.384 15.5059 41.3571C9.42449 38.5044 5.53488 32.0229 9.95907 24.2971L3.48191 25.7736C1.41737 26.2441 0.126248 28.299 0.596741 30.3635L6.78786 57.532C7.25898 59.5966 9.31289 60.8886 11.3806 60.4184L14.0781 59.8016C14.0781 59.7863 14.08 59.7719 14.0781 59.7569C12.2965 58.9657 10.6209 58.2214 8.82208 57.422C9.88186 54.9035 10.8851 52.5226 11.9467 49.9973C12.621 50.4002 13.0956 50.6994 13.5848 50.9742C16.45 52.5764 19.4858 53.3229 22.7708 52.7724C24.2939 52.5185 25.6051 51.9621 26.0393 50.2836C26.482 48.5717 25.9518 47.0999 24.6891 45.9626Z" fill="#808A9E"/>
<path d="M30.6507 19.5812L26.7858 20.4618C26.7883 20.4637 26.7883 20.4653 26.7883 20.4653C28.67 21.0771 30.2972 21.5566 31.8606 22.1809C32.2751 22.3469 33.2408 22.7321 33.2408 22.7321C33.2408 22.7321 31.3204 27.7124 30.5066 30.0755C27.4345 27.6214 24.5306 26.9568 21.1806 27.4508C19.7428 27.6646 18.3404 28.6447 17.9193 30.139C17.4795 31.7049 18.0256 32.93 19.3314 33.7747C20.2905 34.3937 21.3231 34.9227 22.371 35.3775C24.4177 36.2654 26.5351 36.9963 28.5593 37.932C33.544 40.2331 36.1147 44.0981 35.668 49.6683C35.5398 51.2796 35.0659 53.1919 34.6416 55.0735C34.6526 55.0863 34.661 55.097 34.6688 55.1085L38.5469 54.2241C40.6114 53.7539 41.9025 51.6988 41.4339 49.6346L35.2406 22.4667C34.7692 20.4024 32.715 19.1104 30.6507 19.5812Z" fill="#808A9E"/>
</svg>
