<svg width="40" height="40" viewBox="0 0 40 40" fill="none" xmlns="http://www.w3.org/2000/svg">
<path d="M20 40C31.0457 40 40 31.0457 40 20C40 8.95431 31.0457 0 20 0C8.95431 0 0 8.95431 0 20C0 31.0457 8.95431 40 20 40Z" fill="#FA3C52"/>
<path d="M9.20001 11.2723C9.20001 10.7905 9.59224 10.4 10.0686 10.4H27.5314C28.0111 10.4 28.4 10.7906 28.4 11.2723V29.5278C28.4 30.0095 28.0078 30.4 27.5314 30.4H10.0686C9.58888 30.4 9.20001 30.0095 9.20001 29.5278V11.2723Z" fill="#FC8A97"/>
<path d="M9.20165 11.2729C9.17242 10.7908 9.53785 10.4 10.0172 10.4H27.7603C28.2399 10.4 28.6105 10.7975 28.5948 11.2768C28.5948 11.2768 28.3219 15.6572 29.1934 20.0381C30.0649 24.4191 33.0546 28.1023 33.0546 28.1023C33.3434 28.4876 33.1884 28.8 32.7097 28.8H15.401C14.9217 28.8 14.2578 28.5161 13.9408 28.1569C13.9408 28.1569 11.5022 25.9524 10.456 20.9143C9.40978 15.8762 9.20165 11.2729 9.20165 11.2729ZM16.9271 19.738C16.5017 19.3103 15.8119 19.3103 15.3865 19.738C14.9611 20.1657 14.9611 20.8592 15.3865 21.2869L17.9921 23.9065C18.4176 24.3342 19.1073 24.3342 19.5328 23.9065L25.1672 18.2418C25.5926 17.8141 25.5926 17.1206 25.1672 16.6929C24.7418 16.2652 24.052 16.2652 23.6266 16.6929L18.7624 21.5832L16.9271 19.738Z" fill="white"/>
</svg>
