<?xml version="1.0" encoding="UTF-8"?>
<svg width="98px" height="27px" viewBox="0 0 98 27" version="1.1" xmlns="http://www.w3.org/2000/svg" xmlns:xlink="http://www.w3.org/1999/xlink">
    <!-- Generator: Sketch 63.1 (92452) - https://sketch.com -->
    <title>TMS-logo</title>
    <desc>Created with Sketch.</desc>
    <g id="Page-1" stroke="none" stroke-width="1" fill="none" fill-rule="evenodd">
        <g id="TMS-logo" fill="#808A9E" fill-rule="nonzero">
            <path d="M45.4468626,24 C45.217567,24 45.122304,23.9088033 45.122304,23.6912578 L45.122304,7.22765747 C45.1289503,7.17669786 45.1112269,7.12551718 45.0724572,7.08914904 C45.0347951,7.05278091 44.9805174,7.03553644 44.9273474,7.04239001 L39.3245585,7.04239001 C39.0952629,7.04239001 39,6.95130386 39,6.7337583 L39,3.30874225 C39,3.09119669 39.098586,3 39.3245585,3 L55.6754415,3 C55.9036294,3 56,3.09119669 56,3.30874225 L56,6.72491499 C56,6.94246055 55.9036294,7.0335467 55.6754415,7.0335467 L50.0848374,7.0335467 C50.0316674,7.02669313 49.9773897,7.04404813 49.9397276,7.08030573 C49.9009578,7.11667386 49.8832345,7.16785455 49.8898808,7.21881415 L49.8898808,23.6824144 C49.8898808,23.89996 49.7946178,23.9911567 49.5653222,23.9911567 L45.4468626,24 Z" id="Path"></path>
            <path d="M58,3.31124512 C58,3.09372588 58.0958329,3.00265075 58.3154948,3.00265075 L62.0755895,3.00265075 C62.297405,2.97977144 62.5062991,3.10687872 62.5838269,3.31124512 L68.0172284,15.3017724 L68.1442877,15.3017724 L73.4818564,3.31124512 C73.5593841,3.107984 73.7661247,2.98109777 73.9868634,3.00265075 L77.6845052,3.00265075 C77.9063207,3.00265075 78,3.09372588 78,3.31124512 L78,23.6914056 C78,23.9089249 77.9063207,24 77.6845052,24 L74.1128459,24 C73.8910305,24 73.7973511,23.9089249 73.7973511,23.6914056 L73.7973511,11.8566124 L73.6713686,11.8566124 L69.6916119,20.7252743 C69.6065468,20.9766151 69.3610423,21.1414125 69.090772,21.1280386 L66.9113815,21.1280386 C66.6411112,21.1414125 66.3956068,20.9766151 66.3105416,20.7252743 L62.3275546,11.8566124 L62.2015721,11.8566124 L62.2015721,23.6914056 C62.2015721,23.9089249 62.1057392,24 61.8860773,24 L58.3154948,24 C58.0926026,24 58,23.9089249 58,23.6914056 L58,3.31124512 Z" id="Path"></path>
            <path d="M84.7379875,23.2228169 C83.2217083,22.6847505 82.0095538,22.0243429 81.1362813,21.2301411 C81.0559054,21.169024 81.0070282,21.0786862 81.0005113,20.9817123 C80.9950805,20.8846313 81.0330961,20.789798 81.1058688,20.7205462 L83.5312639,18.1158427 C83.5833995,18.0424166 83.6692062,17.9957492 83.7626159,17.9896482 C83.8560257,17.9835471 83.9483493,18.0185477 84.0102604,18.0845884 C85.8904032,19.4908179 87.770546,20.1796969 89.6832736,20.1796969 C91.8816612,20.1796969 93.2208964,19.2232297 93.2208964,17.7571675 C93.2208964,16.4704965 92.3302453,15.8128718 89.8863855,15.479885 L88.7404868,15.3289653 C84.1927352,14.7311733 81.8879039,12.6957905 81.8879039,9.22570682 C81.8879039,7.34113671 82.5884771,5.84382024 83.9592109,4.7079619 C85.3288585,3.57221058 87.2426723,3 89.5681406,3 C92.5333572,3 94.9859063,3.71735042 96.9290463,5.12357987 C97.0191976,5.16179146 97.0811087,5.24056943 97.0941426,5.33197755 C97.1071766,5.42338568 97.069161,5.51457973 96.9931298,5.5733421 L95.0499897,8.29482102 C95.004371,8.36321656 94.9315983,8.41148947 94.8468778,8.42861512 C94.7632435,8.4458478 94.6752645,8.43043472 94.603578,8.38590804 C92.8939623,7.33546385 91.2082421,6.82308598 89.5583652,6.82308598 C87.6793086,6.82308598 86.6572321,7.71982752 86.6572321,9.03775287 C86.6572321,10.2362269 87.6119666,10.9535773 90.0351894,11.2809982 L91.1810881,11.4318109 C95.7288396,12.0012386 98,14.0650927 98,17.5949021 C98,21.4265509 94.9402875,24 89.488851,24 C87.8693865,23.9973241 86.262956,23.7345525 84.7379875,23.2228169 Z" id="Path"></path>
            <path d="M27.3462812,18.93451 L20.1416135,12.2101551 C18.6194622,10.7895018 18.6194622,8.48614341 20.1416135,7.06549003 C21.6637647,5.64483666 24.1315675,5.64483666 25.6537188,7.06549003 L32.8583865,13.7898449 C34.3805378,15.2104982 34.3805378,17.5138566 32.8583865,18.93451 C31.3362353,20.3551633 28.8684325,20.3551633 27.3462812,18.93451 Z" id="Path" opacity="0.8"></path>
            <path d="M32.8583865,19.2101551 L25.6537188,25.93451 C24.1315675,27.3551633 21.6637647,27.3551633 20.1416135,25.93451 C18.6194622,24.5138566 18.6194622,22.2104982 20.1416135,20.7898449 L27.3462812,14.06549 C28.8684325,12.6448367 31.3362353,12.6448367 32.8583865,14.06549 C34.3805378,15.4861434 34.3805378,17.7895018 32.8583865,19.2101551 Z" id="Path" opacity="0.8"></path>
            <path d="M1.14153589,7.78984485 L8.3463388,1.06549003 C9.86838664,-0.355163344 12.3363073,-0.355163344 13.8584641,1.06549003 C15.380512,2.48614341 15.380512,4.78950177 13.8584641,6.21015515 L6.6536612,12.93451 C5.13161336,14.3551633 2.66369269,14.3551633 1.14153589,12.93451 C-0.380511962,11.5138566 -0.380511962,9.21049823 1.14153589,7.78984485 Z" id="Path" opacity="0.8"></path>
            <path d="M6.65371876,8.06549003 L13.8583865,14.7899516 C15.3805378,16.210605 15.3805378,18.5138566 13.8583865,19.93451 C12.3362353,21.3551633 9.86843252,21.3551633 8.34628124,19.93451 L1.14161346,13.2101551 C-0.38053782,11.7895018 -0.38053782,9.48614341 1.14161346,8.06549003 C2.66376474,6.64483666 5.13156748,6.64483666 6.65371876,8.06549003 Z" id="Path" opacity="0.8"></path>
        </g>
    </g>
</svg>